<svg xmlns="http://www.w3.org/2000/svg" width="1365.333" height="1365.333" viewBox="0 0 1365.333 1365.333"><path style="fill:#0bbcba;stroke:none;stroke-width:1.33333" d="M452 978.667h473.156c49.553 102.02 82.576 216.14 126.165 308 11.666 23.933 27.186 59.026 48.699 75.573 5.888 4.533 14.319 3.093 21.313 3.093h244l-.52-326.666c-116.245-297.239-257.976-605.974-364.248-880C980.731 106.567 960.204 42.815 916 5.74 906.276-2.416 893.267 0 881.333 0h-448c-10.644 5.318-20.424 19.891-27.228 29.333-16.584 23.015-30.664 47.042-41.374 73.334C273.09 332.604 173.775 573.837 86.65 784c-18.45 44.5-36.906 89.008-55.785 133.333C20.813 940.937 6.43 967.023.706 992-1.656 1118.074 0 1254.897 0 1365.333h221.333c5.632 0 14.362 1.627 19.38-1.36 5.928-3.533 10.555-12.026 14.699-17.426 12.45-16.232 22.285-33.715 31.599-51.88C418.017 984.4 551.193 642.047 670.667 364h2.666c43.72 107.297 129.334 316 129.334 316s-198.395-.246-228.95 0"/></svg>