<?xml version="1.0" encoding="UTF-8" standalone="no"?>
<svg version="1.1" id="svg2" width="1365.3333" height="1365.3333" viewBox="0 0 1365.3333 1365.3333" xmlns="http://www.w3.org/2000/svg" xmlns:svg="http://www.w3.org/2000/svg">
  <path style="fill:#0bbcba;stroke:none;stroke-width:1.33333" d="m 451.99999,978.66664 c 170.4286,-4.6e-4 321.71715,5.7e-4 473.15599,3.6e-4 49.55351,102.0205 82.57602,216.1395 126.16532,307.9996 11.6653,23.9334 27.1853,59.0267 48.6987,75.5734 5.888,4.5333 14.3186,3.0933 21.3133,3.0933 h 244 l -0.52,-326.6667 C 1248.5685,741.42801 1106.8368,432.69294 1000.5653,158.66666 980.73064,106.5676 960.20398,42.815466 915.99998,5.7397465 906.27598,-2.4158533 893.26664,0 881.33331,0 H 433.33332 c -10.644,5.3181198 -20.424,19.891466 -27.228,29.333333 -16.584,23.014932 -30.664,47.042132 -41.37466,73.333327 -91.63971,229.93749 -190.95592,471.17086 -278.079462,681.33332 -18.450133,44.5 -36.905866,89.008 -55.784932,133.33333 -10.0536,23.604 -24.4365995,49.68933 -30.16050468,74.66667 C -1.6557651,1118.0743 0,1254.8966 0,1365.3333 h 221.33333 c 5.632,0 14.36133,1.6267 19.38,-1.36 5.928,-3.5333 10.55466,-12.0267 14.69866,-17.4267 12.45067,-16.232 22.28534,-33.7146 31.59867,-51.88 131.00612,-310.26539 264.1823,-652.61939 383.65599,-930.66661 0.88889,0 1.77778,0 2.66667,0 43.71946,107.29665 129.33333,315.99999 129.33333,315.99999 0,0 -198.39482,-0.24602 -228.94951,2e-5"/>
</svg>