<svg xmlns="http://www.w3.org/2000/svg" width="1024" height="1024" viewBox="0 0 1024 1024"><path fill="#0bbcba" d="M667.447 0H356.553a48.06 48.06 146.714 0 0-44.099 28.951L9.11 728.98A110.5 110.5 101.714 0 0 0 772.909v245.982A5.11 5.11 45 0 0 5.109 1024h172.605a21.43 21.43 146.31 0 0 19.78-13.187l301.24-722.974a14.372 14.372 180 0 1 26.532 0l88.97 213.524A7.682 7.682 123.69 0 1 607.143 512H464.356a17.285 17.285 146.31 0 0-15.955 10.637l-81.97 196.726A7.682 7.682 56.31 0 0 373.524 730h324.454a17.285 17.285 33.69 0 1 15.955 10.637l112.573 270.176a21.43 21.43 33.69 0 0 19.78 13.187h172.605a5.11 5.11 135 0 0 5.109-5.109V772.91a110.5 110.5 78.286 0 0-9.11-43.931L711.547 28.95A48.06 48.06 33.286 0 0 667.447 0"/></svg>