<svg xmlns="http://www.w3.org/2000/svg" x="0" y="0" fill="#0082C9" viewBox="0 0 489 232"><path d="M244.8,7c-49.5,0-91.5,33.4-104.5,78.9c-11.4-24-35.7-40.8-64-40.8c-38.9,0-70.7,31.8-70.7,70.7s31.8,70.7,70.7,70.7 c28.3,0,52.6-16.9,64-40.8c13,45.6,55,78.9,104.5,78.9c49.1,0,90.7-33,104.1-77.8c11.4,23.6,35.7,40.1,63.6,40.1 c38.9,0,70.7-31.8,70.7-70.7s-31.8-70.7-70.7-70.7c-27.9,0-51.8,16.5-63.6,40.1C335.5,40,293.9,7,244.8,7z M244.8,48.2 c37.3,0,67.2,29.9,67.2,67.2s-29.9,67.2-67.2,67.2s-67.2-29.9-67.2-67.2S207.5,48.2,244.8,48.2z M76.3,86.3 c16.5,0,29.1,13,29.1,29.1c0,16.5-13,29.1-29.1,29.1c-16.5,0-29.1-13-29.1-29.1C47.2,99.3,60.2,86.3,76.3,86.3z M412.5,86.3 c16.5,0,29.1,13,29.1,29.1c0,16.5-13,29.1-29.1,29.1c-16.5,0-29.1-13-29.1-29.1C383,99.3,396,86.3,412.5,86.3z"/></svg>