<svg xmlns="http://www.w3.org/2000/svg" fill="#0082C9" viewBox="0 0 489 232"><path d="M244.8 7c-49.5 0-91.5 33.4-104.5 78.9-11.4-24-35.7-40.8-64-40.8-38.9 0-70.7 31.8-70.7 70.7s31.8 70.7 70.7 70.7c28.3 0 52.6-16.9 64-40.8 13 45.6 55 78.9 104.5 78.9 49.1 0 90.7-33 104.1-77.8 11.4 23.6 35.7 40.1 63.6 40.1 38.9 0 70.7-31.8 70.7-70.7s-31.8-70.7-70.7-70.7c-27.9 0-51.8 16.5-63.6 40.1C335.5 40 293.9 7 244.8 7zm0 41.2c37.3 0 67.2 29.9 67.2 67.2s-29.9 67.2-67.2 67.2-67.2-29.9-67.2-67.2 29.9-67.2 67.2-67.2zM76.3 86.3c16.5 0 29.1 13 29.1 29.1 0 16.5-13 29.1-29.1 29.1-16.5 0-29.1-13-29.1-29.1s13-29.1 29.1-29.1zm336.2 0c16.5 0 29.1 13 29.1 29.1 0 16.5-13 29.1-29.1 29.1-16.5 0-29.1-13-29.1-29.1-.4-16.1 12.6-29.1 29.1-29.1z"/></svg>