<svg xmlns="http://www.w3.org/2000/svg" width="640" height="640" fill="none" viewBox="0 0 640 640"><path fill="url(#a)" d="M490.4 235.64c53.69 122.74 53.69 199.7 0 230.86-80.55 46.74-290.44 60.99-350.86-10.86-40.28-47.9-40.28-121.24 0-220 40.96-67.46 99.17-101.19 174.63-101.19 75.47 0 134.21 33.73 176.23 101.19Z"/><path stroke="#F2F2F2" stroke-opacity=".51" stroke-width="200" d="M490.4 235.64c53.69 122.74 53.69 199.7 0 230.86-80.55 46.74-290.44 60.99-350.86-10.86-40.28-47.9-40.28-121.24 0-220 40.96-67.46 99.17-101.19 174.63-101.19 75.47 0 134.21 33.73 176.23 101.19Z"/><defs><linearGradient id="a" x1="259.78" x2="463.85" y1="261.15" y2="456.49" gradientUnits="userSpaceOnUse"><stop stop-color="#5CDD8B"/><stop offset="1" stop-color="#86E6A9"/></linearGradient></defs></svg>