<svg width="512" height="512" viewBox="0 0 512 512" fill="none" xmlns="http://www.w3.org/2000/svg"><rect width="512" height="512" rx="256" fill="url(#a)"/><g filter="url(#b)"><path d="M114.931 228.979v-20.721h90v21.958l-64.639 71.753h68.041V323h-97.732v-23.505l62.784-70.516h-58.454ZM259.954 323H235.83V207.948h24.124V323Zm-27.217-149.072c0-4.124 1.444-7.629 4.33-10.516 3.093-3.092 6.804-4.639 11.134-4.639 4.124 0 7.629 1.547 10.516 4.639 3.092 2.887 4.639 6.392 4.639 10.516 0 4.33-1.547 8.041-4.639 11.134-2.887 2.886-6.392 4.33-10.516 4.33-4.33 0-7.938-1.547-10.825-4.639-3.092-2.887-4.639-6.495-4.639-10.825Zm180.401 90.928c0 17.319-5.361 31.649-16.083 42.989-10.721 11.341-23.505 17.011-38.35 17.011-14.639 0-27.732-6.392-39.279-19.176v59.382h-24.123V207.948h24.123v20.104c9.691-14.64 22.165-21.959 37.423-21.959 15.876 0 29.175 5.464 39.897 16.392 10.928 10.927 16.392 25.051 16.392 42.371Zm-60 38.35c9.897 0 18.247-3.505 25.051-10.515 7.011-7.217 10.516-16.289 10.516-27.217 0-10.928-3.505-20-10.516-27.216-6.804-7.217-15.051-10.825-24.742-10.825s-17.835 3.711-24.433 11.134c-6.598 7.217-9.897 16.186-9.897 26.907 0 10.928 3.299 20 9.897 27.217 6.598 7.01 14.639 10.515 24.124 10.515Z" fill="url(#c)"/></g><defs><linearGradient id="a" x1="0" y1="0" x2="512" y2="544.5" gradientUnits="userSpaceOnUse"><stop stop-color="#232B38"/><stop offset="1" stop-color="#0D0F11"/></linearGradient><linearGradient id="c" x1="101.001" y1="150.498" x2="423.003" y2="322.996" gradientUnits="userSpaceOnUse"><stop stop-color="#FF7979"/><stop offset="1" stop-color="#EC9FFF"/></linearGradient><filter id="b" x="74.602" y="126.773" width="374.537" height="278.289" filterUnits="userSpaceOnUse" color-interpolation-filters="sRGB"><feFlood flood-opacity="0" result="BackgroundImageFix"/><feColorMatrix in="SourceAlpha" values="0 0 0 0 0 0 0 0 0 0 0 0 0 0 0 0 0 0 127 0" result="hardAlpha"/><feOffset dy="4"/><feGaussianBlur stdDeviation="18"/><feComposite in2="hardAlpha" operator="out"/><feColorMatrix values="0 0 0 0 0.8375 0 0 0 0 0.778177 0 0 0 0 0.778177 0 0 0 0.24 0"/><feBlend in2="BackgroundImageFix" result="effect1_dropShadow_1669_3"/><feBlend in="SourceGraphic" in2="effect1_dropShadow_1669_3" result="shape"/></filter></defs></svg>